<svg width="31" height="16" viewBox="0 0 31 16" fill="none" xmlns="http://www.w3.org/2000/svg">
<path d="M6.59375 14.8828C6.59375 15.6276 6.22396 16 5.48438 16H1.80469C1.07031 16 0.703125 15.6276 0.703125 14.8828V11.9688H2.53125V14.4609H4.76562V12.0625L1.10156 8.59375C0.835938 8.33854 0.703125 8.01302 0.703125 7.61719V4.89844C0.703125 4.14844 1.07031 3.77344 1.80469 3.77344H5.48438C6.22396 3.77344 6.59375 4.14323 6.59375 4.88281V7.61719H4.76562V5.3125H2.53125V7.52344L6.19531 10.9766C6.46094 11.2266 6.59375 11.5573 6.59375 11.9688V14.8828ZM13.3953 16H11.5516V10.5156H9.075V16H7.24687V3.77344H9.075V8.8125H11.5516V3.77344H13.3953V16ZM15.9156 16H14.0875V3.77344H15.9156V16ZM22.6156 14.8828C22.6156 15.6276 22.2432 16 21.4984 16H16.6156V3.77344H21.4672C22.1911 3.77344 22.5531 4.14844 22.5531 4.89844V8.04688C22.5531 8.46354 22.4229 8.78646 22.1625 9.01562C22.126 9.04688 21.8083 9.2474 21.2094 9.61719C21.8292 9.9974 22.1573 10.2057 22.1938 10.2422C22.475 10.487 22.6156 10.8229 22.6156 11.25V14.8828ZM20.7328 8.27344V5.3125H18.4438V8.89844H19.85L20.7328 8.27344ZM20.7797 14.4609V10.9766L19.8813 10.3828H18.4438V14.4609H20.7797ZM25.1125 16H23.2844V3.77344H25.1125V16Z" fill="url(#paint0_linear_21_53)"/>
<circle cx="27.5" cy="1.5" r="1.5" fill="url(#paint1_linear_21_53)"/>
<defs>
<linearGradient id="paint0_linear_21_53" x1="0" y1="0" x2="31" y2="16" gradientUnits="userSpaceOnUse">
<stop stop-color="#08A88A"/>
<stop offset="1" stop-color="#508FC4"/>
</linearGradient>
<linearGradient id="paint1_linear_21_53" x1="26" y1="0" x2="29" y2="3" gradientUnits="userSpaceOnUse">
<stop stop-color="#08A88A"/>
<stop offset="1" stop-color="#508FC4"/>
</linearGradient>
</defs>
</svg>
