<svg width="16" height="16" viewBox="0 0 16 16" fill="none" xmlns="http://www.w3.org/2000/svg">
<path d="M6.59375 14.8828C6.59375 15.6276 6.22396 16 5.48438 16H1.80469C1.07031 16 0.703125 15.6276 0.703125 14.8828V11.9688H2.53125V14.4609H4.76562V12.0625L1.10156 8.59375C0.835938 8.33854 0.703125 8.01302 0.703125 7.61719V4.89844C0.703125 4.14844 1.07031 3.77344 1.80469 3.77344H5.48438C6.22396 3.77344 6.59375 4.14323 6.59375 4.88281V7.61719H4.76562V5.3125H2.53125V7.52344L6.19531 10.9766C6.46094 11.2266 6.59375 11.5573 6.59375 11.9688V14.8828ZM13.3953 16H11.5516V10.5156H9.075V16H7.24687V3.77344H9.075V8.8125H11.5516V3.77344H13.3953V16Z" fill="url(#paint0_linear_24_36)"/>
<circle cx="14.5" cy="1.5" r="1.5" fill="url(#paint1_linear_24_36)"/>
<defs>
<linearGradient id="paint0_linear_24_36" x1="0" y1="8" x2="16" y2="8" gradientUnits="userSpaceOnUse">
<stop stop-color="#08A88A"/>
<stop offset="1" stop-color="#508FC4"/>
</linearGradient>
<linearGradient id="paint1_linear_24_36" x1="13" y1="0" x2="16" y2="3" gradientUnits="userSpaceOnUse">
<stop stop-color="#08A88A"/>
<stop offset="1" stop-color="#508FC4"/>
</linearGradient>
</defs>
</svg>
