<svg width="64" height="64" viewBox="0 0 64 64" fill="none" xmlns="http://www.w3.org/2000/svg">
<path d="M32 10C39.808 10 46 16.0667 46 23.3867C46 27.9467 44.8266 30.2693 43.3386 32.3813C43.0009 32.8542 42.6302 33.352 42.2266 33.8747C40.8293 35.7013 39.1493 37.9013 37.9573 41.072C37.7141 41.7257 37.3983 42.35 37.016 42.9333L36.8666 43.1467C36.5402 43.6138 36.1647 44.0447 35.7466 44.432C34.664 45.424 33.3626 46 32 46C30.64 46 29.336 45.424 28.2506 44.432C27.8324 44.0438 27.457 43.6121 27.1306 43.144L26.984 42.9307C26.6018 42.3482 26.2861 41.7247 26.0426 41.072C24.8506 37.8987 23.1706 35.7013 21.7733 33.872C21.393 33.3815 21.0223 32.8836 20.6613 32.3787C19.176 30.272 18 27.9467 18 23.384C18 16.0667 24.1946 10 32 10ZM40.4453 44.984C40.9573 44.184 41.3786 43.3387 41.7013 42.4773C42.6666 39.9093 43.8826 38.312 45.216 36.5653C45.6693 35.9707 46.136 35.3573 46.6106 34.6827C48.504 31.9947 50 28.8827 50 23.384C50 13.7093 41.8666 6 32 6C22.1333 6 14 13.7093 14 23.3867C14 28.88 15.496 31.9947 17.3893 34.6827C17.864 35.3573 18.3306 35.9707 18.784 36.5653C20.1173 38.312 21.3333 39.9093 22.2986 42.4773C22.6213 43.3387 23.0453 44.184 23.5546 44.984L24.1466 50.8933C24.3433 52.8395 25.2556 54.6432 26.7066 55.955C28.1576 57.2668 30.0439 57.993 32 57.993C33.956 57.993 35.8424 57.2668 37.2934 55.955C38.7444 54.6432 39.6566 52.8395 39.8533 50.8933L40.4453 44.984ZM36.0186 49.064L35.8746 50.4933C35.7801 51.4553 35.3311 52.3478 34.6149 52.997C33.8987 53.6463 32.9666 54.0059 32 54.0059C31.0333 54.0059 30.1012 53.6463 29.3851 52.997C28.6689 52.3478 28.2199 51.4553 28.1253 50.4933L27.984 49.064C29.184 49.656 30.5306 50 32 50C33.4666 50 34.816 49.6533 36.016 49.064M6.46131 8.05067C6.80126 7.64382 7.28883 7.3886 7.81687 7.34109C8.34492 7.29359 8.87021 7.45769 9.27731 7.79733L13.2773 11.1307C13.6703 11.4744 13.9132 11.9583 13.9543 12.4788C13.9953 12.9993 13.8311 13.5152 13.4969 13.9163C13.1626 14.3174 12.6848 14.5719 12.1654 14.6254C11.646 14.6789 11.1263 14.5272 10.7173 14.2027L6.71731 10.8693C6.31007 10.5298 6.05434 10.0424 6.00634 9.51433C5.95833 8.98628 6.12198 8.4581 6.46131 8.05067ZM57.5333 8.05333C57.7017 8.25515 57.8287 8.48818 57.907 8.73911C57.9853 8.99005 58.0134 9.25395 57.9896 9.51574C57.9658 9.77752 57.8907 10.0321 57.7685 10.2648C57.6462 10.4975 57.4793 10.7038 57.2773 10.872L53.2773 14.2053C53.0766 14.3809 52.8428 14.5146 52.5897 14.5985C52.3365 14.6824 52.0691 14.7148 51.8033 14.6939C51.5374 14.6729 51.2784 14.599 51.0416 14.4765C50.8047 14.354 50.5947 14.1853 50.424 13.9804C50.2533 13.7756 50.1252 13.5386 50.0474 13.2835C49.9696 13.0284 49.9436 12.7604 49.971 12.4951C49.9983 12.2298 50.0784 11.9727 50.2066 11.7388C50.3348 11.505 50.5084 11.2991 50.7173 11.1333L54.7173 7.8C55.1247 7.46067 55.6503 7.29702 56.1783 7.34502C56.7064 7.39303 57.1938 7.64609 57.5333 8.05333ZM3.33331 22C3.33331 21.4696 3.54403 20.9609 3.9191 20.5858C4.29417 20.2107 4.80288 20 5.33331 20H10.6666C11.1971 20 11.7058 20.2107 12.0809 20.5858C12.4559 20.9609 12.6666 21.4696 12.6666 22C12.6666 22.5304 12.4559 23.0391 12.0809 23.4142C11.7058 23.7893 11.1971 24 10.6666 24H5.33331C4.80288 24 4.29417 23.7893 3.9191 23.4142C3.54403 23.0391 3.33331 22.5304 3.33331 22ZM51.3333 22C51.3333 21.4696 51.544 20.9609 51.9191 20.5858C52.2942 20.2107 52.8029 20 53.3333 20H58.6666C59.1971 20 59.7058 20.2107 60.0809 20.5858C60.4559 20.9609 60.6666 21.4696 60.6666 22C60.6666 22.5304 60.4559 23.0391 60.0809 23.4142C59.7058 23.7893 59.1971 24 58.6666 24H53.3333C52.8029 24 52.2942 23.7893 51.9191 23.4142C51.544 23.0391 51.3333 22.5304 51.3333 22ZM13.7866 31.7733C14.0237 32.2476 14.0628 32.7965 13.8953 33.2996C13.7278 33.8026 13.3674 34.2186 12.8933 34.456L8.89331 36.456C8.65808 36.5757 8.40147 36.6477 8.13829 36.6678C7.8751 36.6879 7.61054 36.6557 7.35986 36.573C7.10918 36.4904 6.87734 36.359 6.6777 36.1863C6.47806 36.0136 6.31458 35.8031 6.19668 35.567C6.07878 35.3308 6.00879 35.0737 5.99075 34.8103C5.9727 34.547 6.00697 34.2827 6.09156 34.0327C6.17615 33.7826 6.30939 33.5518 6.48361 33.3535C6.65783 33.1552 6.86958 32.9934 7.10665 32.8773L11.1066 30.8773C11.5812 30.6404 12.1304 30.6017 12.6335 30.7698C13.1366 30.9378 13.5497 31.2988 13.7866 31.7733ZM50.216 31.7733C50.4529 31.2995 50.8682 30.939 51.3707 30.771C51.8731 30.603 52.4217 30.6413 52.896 30.8773L56.896 32.8773C57.133 32.9934 57.3448 33.1552 57.519 33.3535C57.6932 33.5518 57.8265 33.7826 57.9111 34.0327C57.9957 34.2827 58.0299 34.547 58.0119 34.8103C57.9938 35.0737 57.9238 35.3308 57.8059 35.567C57.688 35.8031 57.5246 36.0136 57.3249 36.1863C57.1253 36.359 56.8934 36.4904 56.6428 36.573C56.3921 36.6557 56.1275 36.6879 55.8643 36.6678C55.6012 36.6477 55.3445 36.5757 55.1093 36.456L51.1093 34.456C50.6348 34.2191 50.2738 33.8033 50.1057 33.3002C49.9377 32.7971 49.9791 32.2479 50.216 31.7733Z" fill="url(#paint0_linear_12_34)"/>
<defs>
<linearGradient id="paint0_linear_12_34" x1="13" y1="13" x2="39" y2="42" gradientUnits="userSpaceOnUse">
<stop stop-color="#764BA2"/>
<stop offset="1" stop-color="#667EEA"/>
</linearGradient>
</defs>
</svg>
