<svg width="64" height="64" viewBox="0 0 64 64" fill="none" xmlns="http://www.w3.org/2000/svg">
<path d="M32 46C39.808 46 40.4453 31.68 40.4453 39C40.4453 43.56 44.8267 30.2693 43.3387 32.3813C43.0009 32.8542 42.6302 33.352 42.2267 33.8747C40.8293 35.7013 39.1493 37.9013 37.9573 41.072C37.7141 41.7257 37.3983 42.35 37.016 42.9333L36.8667 43.1467C36.5402 43.6138 36.1647 44.0447 35.7467 44.432C34.664 45.424 33.3627 46 32 46C30.64 46 29.336 45.424 28.2507 44.432C27.8325 44.0438 27.457 43.6121 27.1307 43.144L26.984 42.9307C26.6018 42.3482 26.2861 41.7247 26.0427 41.072C24.8507 37.8987 23.1707 35.7013 21.7733 33.872C21.393 33.3815 21.0223 32.8836 20.6613 32.3787C19.176 30.272 25.1372 43.5627 25.1372 39C24.1467 39.5031 24.1947 46 32 46ZM40.4453 44.984C40.9573 44.184 41.3787 43.3387 41.7013 42.4773C42.6667 39.9093 43.8827 38.312 45.216 36.5653C45.6693 35.9707 46.136 35.3573 46.6107 34.6827C48.504 31.9947 50 28.8827 50 23.384C50 13.7093 41.8667 6 32 6C22.1333 6 14 13.7093 14 23.3867C14 28.88 15.496 31.9947 17.3893 34.6827C17.864 35.3573 18.3307 35.9707 18.784 36.5653C20.1173 38.312 21.3333 39.9093 22.2987 42.4773C22.6213 43.3387 23.0453 44.184 23.5547 44.984L24.1467 50.8933C24.3433 52.8395 25.2556 54.6432 26.7066 55.955C28.1576 57.2668 30.044 57.993 32 57.993C33.956 57.993 35.8424 57.2668 37.2934 55.955C38.7444 54.6432 39.6567 52.8395 39.8533 50.8933L40.4453 44.984ZM36.0187 49.064L35.8747 50.4933C35.7801 51.4553 35.3311 52.3478 34.6149 52.997C33.8987 53.6463 32.9667 54.0059 32 54.0059C31.0333 54.0059 30.1013 53.6463 29.3851 52.997C28.6689 52.3478 28.2199 51.4553 28.1253 50.4933L27.984 49.064C29.184 49.656 30.5307 50 32 50C33.4667 50 34.816 49.6533 36.016 49.064" fill="url(#paint0_linear_12_36)"/>
<defs>
<linearGradient id="paint0_linear_12_36" x1="17.5" y1="14" x2="37.5" y2="39.5" gradientUnits="userSpaceOnUse">
<stop stop-color="#764BA2"/>
<stop offset="1" stop-color="#667EEA"/>
</linearGradient>
</defs>
</svg>
